<svg width="1920" height="1080" viewBox="0 0 1920 1080" fill="none" xmlns="http://www.w3.org/2000/svg">
<g clip-path="url(#clip0_1_29)">
<path d="M-712.437 157.406L-582.527 258.998L-607.259 95.9461L-477.348 197.538L-502.081 34.4863L-372.17 136.078L-396.903 -26.9736L-266.992 74.6183L-291.68 -88.4592L-161.77 13.1327L-186.502 -149.919L-56.5923 -48.3272L-81.3243 -211.379L48.6299 -109.813L23.8978 -272.865L153.808 -171.273L129.076 -334.324L259.03 -232.758L234.298 -395.81L364.208 -294.218L339.52 -457.296L469.43 -355.704L444.698 -518.755L574.608 -417.163L549.876 -580.215L679.786 -478.623L655.054 -641.675L785.008 -540.109L760.276 -703.161L890.186 -601.569L865.498 -764.646L995.408 -663.054L970.72 -826.132L1100.67 -724.566L1075.94 -887.618L1205.85 -786.026L1181.16 -949.103L1311.12 -847.537L1286.43 -1010.61L1416.39 -909.048" stroke="#A0A3BD" stroke-opacity="0.05" stroke-width="3" stroke-miterlimit="10"/>
<path d="M-278.958 899.228L-149.048 1000.82L-173.78 837.769L-43.8699 939.36L-68.6019 776.309L61.3081 877.901L36.5761 714.849L166.486 816.441L141.798 653.363L271.708 754.955L246.976 591.903L376.886 693.495L352.154 530.444L482.108 632.01L457.376 468.958L587.286 570.55L562.554 407.498L692.509 509.064L667.777 346.013L797.687 447.604L772.999 284.527L902.909 386.119L878.177 223.067L1008.09 324.659L983.355 161.607L1113.26 263.199L1088.53 100.147L1218.49 201.714L1193.75 38.6618L1323.66 140.254L1298.98 -22.8238L1428.89 78.7681L1404.2 -84.3094L1534.15 17.2567L1509.42 -145.795L1639.33 -44.2032L1614.64 -207.281L1744.6 -105.715L1719.91 -268.792L1849.86 -167.226" stroke="#A0A3BD" stroke-opacity="0.05" stroke-width="3" stroke-miterlimit="10"/>
<path d="M-495.698 528.318L-365.788 629.909L-390.52 466.858L-260.61 568.45L-285.342 405.398L-155.432 506.99L-180.164 343.938L-50.2538 445.53L-74.9417 282.452L54.9684 384.044L30.2363 220.993L160.146 322.584L135.414 159.533L265.369 261.099L240.637 98.0471L370.547 199.639L345.815 36.5873L475.769 138.153L451.037 -24.8983L580.947 76.6936L556.259 -86.3839L686.169 15.208L661.437 -147.844L791.347 -46.2518L766.615 -209.304L896.525 -107.712L871.793 -270.763L1001.75 -169.197L977.015 -332.249L1106.92 -230.657L1082.24 -393.735L1212.15 -292.143L1187.46 -455.22L1317.41 -353.654L1292.68 -516.706L1422.59 -415.114L1397.9 -578.191L1527.86 -476.625L1503.17 -639.703L1633.12 -538.137" stroke="#A0A3BD" stroke-opacity="0.05" stroke-width="3" stroke-miterlimit="10"/>
<path d="M-62.2205 1270.14L67.6895 1371.73L42.9575 1208.68L172.868 1310.27L148.136 1147.22L278.046 1248.81L253.314 1085.76L383.224 1187.35L358.536 1024.28L488.446 1125.87L463.714 962.816L593.624 1064.41L568.892 901.356L698.846 1002.92L674.114 839.87L804.024 941.462L779.292 778.41L909.246 879.976L884.514 716.925L1014.42 818.516L989.736 655.439L1119.65 757.031L1094.91 593.979L1224.82 695.571L1200.09 532.519L1330 634.111L1305.27 471.06L1435.22 572.626L1410.49 409.574L1540.4 511.166L1515.71 348.088L1645.62 449.68L1620.94 286.603L1750.89 388.169L1726.16 225.117L1856.07 326.709L1831.38 163.631L1961.33 265.198L1936.65 102.12L2066.6 203.686" stroke="#A0A3BD" stroke-opacity="0.05" stroke-width="3" stroke-miterlimit="10"/>
<path d="M267.683 1834.71L397.593 1936.31L372.861 1773.25L502.771 1874.85L478.039 1711.79L607.949 1813.39L583.217 1650.33L713.127 1751.93L688.439 1588.85L818.349 1690.44L793.617 1527.39L923.527 1628.98L898.795 1465.93L1028.75 1567.5L1004.02 1404.44L1133.93 1506.04L1109.2 1342.98L1239.15 1444.55L1214.42 1281.5L1344.33 1383.09L1319.64 1220.01L1449.55 1321.6L1424.82 1158.55L1554.73 1260.14L1530 1097.09L1659.91 1198.68L1635.17 1035.63L1765.13 1137.2L1740.4 974.147L1870.31 1075.74L1845.62 912.662L1975.53 1014.25L1950.84 851.176L2080.79 952.742L2056.06 789.69L2185.97 891.282L2161.28 728.205L2291.24 829.771L2266.55 666.693L2396.5 768.259" stroke="#A0A3BD" stroke-opacity="0.05" stroke-width="3" stroke-miterlimit="10"/>
<path d="M-608.861 334.656L-478.951 436.248L-503.683 273.196L-373.773 374.788L-398.505 211.736L-268.595 313.328L-293.327 150.276L-163.417 251.868L-188.105 88.7907L-58.1951 190.383L-82.9271 27.3308L46.983 128.923L22.2509 -34.129L152.205 67.437L127.473 -95.6147L257.383 5.97721L232.651 -157.075L362.605 -55.5084L337.873 -218.56L467.783 -116.968L443.095 -280.046L573.005 -178.454L548.273 -341.506L678.183 -239.914L653.451 -402.965L783.361 -301.373L758.629 -464.425L888.584 -362.859L863.852 -525.911L993.762 -424.319L969.074 -587.396L1098.98 -485.805L1074.3 -648.882L1204.25 -547.316L1179.52 -710.368L1309.43 -608.776L1284.74 -771.853L1414.69 -670.287L1390.01 -833.365L1519.96 -731.799" stroke="#A0A3BD" stroke-opacity="0.05" stroke-width="3" stroke-miterlimit="10"/>
<path d="M-175.383 1076.48L-45.4727 1178.07L-70.2048 1015.02L59.7053 1116.61L34.9733 953.559L164.883 1055.15L140.151 892.099L270.061 993.691L245.373 830.614L375.283 932.206L350.551 769.154L480.462 870.746L455.729 707.694L585.684 809.26L560.952 646.208L690.862 747.8L666.13 584.748L796.084 686.315L771.352 523.263L901.262 624.855L876.574 461.777L1006.48 563.369L981.752 400.317L1111.66 501.909L1086.93 338.858L1216.84 440.45L1192.11 277.398L1322.06 378.964L1297.33 215.912L1427.24 317.504L1402.55 154.426L1532.46 256.018L1507.77 92.9409L1637.73 194.507L1613 31.4553L1742.91 133.047L1718.22 -30.0303L1848.17 71.5358L1823.48 -91.5417L1953.44 10.0243" stroke="#A0A3BD" stroke-opacity="0.05" stroke-width="3" stroke-miterlimit="10"/>
<path d="M154.518 1641.05L284.428 1742.64L259.696 1579.59L389.606 1681.18L364.874 1518.13L494.784 1619.72L470.052 1456.67L599.962 1558.26L575.274 1395.19L705.184 1496.78L680.452 1333.73L810.362 1435.32L785.63 1272.27L915.585 1373.83L890.853 1210.78L1020.76 1312.37L996.031 1149.32L1125.98 1250.89L1101.25 1087.84L1231.16 1189.43L1206.47 1026.35L1336.38 1127.94L1311.65 964.89L1441.56 1066.48L1416.83 903.43L1546.74 1005.02L1522.01 841.97L1651.96 943.537L1627.23 780.485L1757.14 882.077L1732.45 718.999L1862.36 820.591L1837.68 657.514L1967.63 759.08L1942.9 596.028L2072.81 697.62L2048.12 534.542L2178.07 636.108L2153.39 473.031L2283.34 574.597" stroke="#A0A3BD" stroke-opacity="0.05" stroke-width="3" stroke-miterlimit="10"/>
<path d="M-392.123 705.567L-262.213 807.159L-286.945 644.107L-157.035 745.699L-181.767 582.648L-51.8565 684.239L-76.5886 521.188L53.3215 622.78L28.6336 459.702L158.544 561.294L133.812 398.242L263.722 499.834L238.99 336.782L368.944 438.349L344.212 275.297L474.122 376.889L449.39 213.837L579.344 315.403L554.612 152.351L684.522 253.943L659.834 90.8657L789.744 192.458L765.012 29.4059L894.922 130.998L870.19 -32.0539L1000.1 69.538L975.368 -93.5137L1105.32 8.05238L1080.59 -154.999L1210.5 -53.4074L1185.81 -216.485L1315.72 -114.893L1291.03 -277.971L1420.99 -176.405L1396.26 -339.456L1526.17 -237.864L1501.48 -400.942L1631.43 -299.376L1606.74 -462.453L1736.7 -360.887" stroke="#A0A3BD" stroke-opacity="0.05" stroke-width="3" stroke-miterlimit="10"/>
<path d="M41.3547 1447.39L171.265 1548.98L146.533 1385.93L276.443 1487.52L251.711 1324.47L381.621 1426.06L356.889 1263.01L486.799 1364.6L462.111 1201.53L592.021 1303.12L567.289 1140.07L697.199 1241.66L672.467 1078.61L802.421 1180.17L777.689 1017.12L907.599 1118.71L882.867 955.66L1012.82 1057.23L988.089 894.174L1118 995.766L1093.31 832.689L1223.22 934.281L1198.49 771.229L1328.4 872.821L1303.67 709.769L1433.58 811.361L1408.85 648.309L1538.8 749.875L1514.07 586.824L1643.98 688.416L1619.29 525.338L1749.2 626.93L1724.51 463.852L1854.47 565.418L1829.73 402.367L1959.64 503.959L1934.96 340.881L2064.91 442.447L2040.22 279.37L2170.18 380.936" stroke="#A0A3BD" stroke-opacity="0.05" stroke-width="3" stroke-miterlimit="10"/>
<path d="M371.258 2011.96L501.168 2113.56L476.436 1950.5L606.346 2052.1L581.614 1889.04L711.524 1990.64L686.792 1827.58L816.702 1929.18L792.014 1766.1L921.924 1867.69L897.192 1704.64L1027.1 1806.23L1002.37 1643.18L1132.32 1744.74L1107.59 1581.69L1237.5 1683.28L1212.77 1520.23L1342.72 1621.8L1317.99 1458.75L1447.9 1560.34L1423.21 1397.26L1553.12 1498.85L1528.39 1335.8L1658.3 1437.39L1633.57 1274.34L1763.48 1375.93L1738.75 1212.88L1868.7 1314.45L1843.97 1151.4L1973.88 1252.99L1949.19 1089.91L2079.1 1191.5L2054.42 1028.43L2184.37 1129.99L2159.64 966.94L2289.55 1068.53L2264.86 905.454L2394.81 1007.02L2370.13 843.943L2500.08 945.509" stroke="#A0A3BD" stroke-opacity="0.05" stroke-width="3" stroke-miterlimit="10"/>
<path d="M-660.65 246.031L-530.739 347.623L-555.472 184.571L-425.561 286.163L-450.293 123.112L-320.383 224.703L-345.115 61.6517L-215.205 163.244L-239.893 0.166124L-109.983 101.758L-134.715 -61.2937L-4.80523 40.2981L-29.5373 -122.754L100.417 -21.1875L75.6849 -184.239L205.595 -82.6473L180.863 -245.699L310.817 -144.133L286.085 -307.185L415.995 -205.593L391.307 -368.67L521.217 -267.078L496.485 -430.13L626.395 -328.538L601.663 -491.59L731.573 -389.998L706.841 -553.05L836.795 -451.484L812.063 -614.535L941.973 -512.943L917.285 -676.021L1047.2 -574.429L1022.51 -737.507L1152.46 -635.941L1127.73 -798.992L1257.64 -697.4L1232.95 -860.478L1362.91 -758.912L1338.22 -921.989L1468.17 -820.423" stroke="#A0A3BD" stroke-opacity="0.05" stroke-width="3" stroke-miterlimit="10"/>
<path d="M-227.171 987.854L-97.2609 1089.45L-121.993 926.394L7.91711 1027.99L-16.815 864.934L113.095 966.526L88.3631 803.474L218.273 905.066L193.585 741.989L323.495 843.58L298.763 680.529L428.673 782.121L403.941 619.069L533.895 720.635L509.163 557.583L639.073 659.175L614.341 496.123L744.296 597.689L719.564 434.638L849.474 536.23L824.786 373.152L954.696 474.744L929.964 311.692L1059.87 413.284L1035.14 250.232L1165.05 351.824L1140.32 188.773L1270.27 290.339L1245.54 127.287L1375.45 228.879L1350.76 65.8014L1480.67 167.393L1455.99 4.31581L1585.94 105.882L1561.21 -57.1698L1691.12 44.422L1666.43 -118.655L1796.38 -17.0893L1771.7 -180.167L1901.65 -78.6008" stroke="#A0A3BD" stroke-opacity="0.05" stroke-width="3" stroke-miterlimit="10"/>
<path d="M-443.911 616.942L-314.001 718.534L-338.733 555.482L-208.823 657.074L-233.555 494.022L-103.645 595.614L-128.377 432.563L1.53328 534.155L-23.1547 371.077L106.755 472.669L82.0234 309.617L211.933 411.209L187.201 248.157L317.156 349.723L292.424 186.672L422.334 288.264L397.602 125.212L527.556 226.778L502.824 63.7262L632.734 165.318L608.046 2.24063L737.956 103.833L713.224 -59.2192L843.134 42.3727L818.402 -120.679L948.312 -19.0871L923.58 -182.139L1053.53 -80.5727L1028.8 -243.624L1158.71 -142.033L1134.02 -305.11L1263.93 -203.518L1239.25 -366.596L1369.2 -265.03L1344.47 -428.081L1474.38 -326.489L1449.69 -489.567L1579.64 -388.001L1554.96 -551.078L1684.91 -449.512" stroke="#A0A3BD" stroke-opacity="0.05" stroke-width="3" stroke-miterlimit="10"/>
<path d="M-10.4323 1358.77L119.478 1460.36L94.7457 1297.31L224.656 1398.9L199.924 1235.85L329.834 1337.44L305.102 1174.39L435.012 1275.98L410.324 1112.9L540.234 1214.49L515.502 1051.44L645.412 1153.03L620.68 989.98L750.634 1091.55L725.902 928.495L855.812 1030.09L831.08 867.035L961.034 968.601L936.302 805.549L1066.21 907.141L1041.52 744.064L1171.43 845.655L1146.7 682.604L1276.61 784.196L1251.88 621.144L1381.79 722.736L1357.06 559.684L1487.01 661.25L1462.28 498.198L1592.19 599.79L1567.5 436.713L1697.41 538.305L1672.72 375.227L1802.68 476.793L1777.95 313.742L1907.86 415.333L1883.17 252.256L2013.12 353.822L1988.44 190.745L2118.39 292.311" stroke="#A0A3BD" stroke-opacity="0.05" stroke-width="3" stroke-miterlimit="10"/>
<path d="M319.471 1923.34L449.381 2024.93L424.649 1861.88L554.559 1963.47L529.827 1800.42L659.737 1902.01L635.005 1738.96L764.915 1840.55L740.227 1677.47L870.137 1779.07L845.405 1616.01L975.315 1717.61L950.583 1554.55L1080.54 1656.12L1055.81 1493.07L1185.72 1594.66L1160.98 1431.61L1290.94 1533.17L1266.21 1370.12L1396.12 1471.71L1371.43 1308.64L1501.34 1410.23L1476.61 1247.18L1606.52 1348.77L1581.78 1185.72L1711.69 1287.31L1686.96 1124.26L1816.92 1225.82L1792.18 1062.77L1922.09 1164.36L1897.41 1001.29L2027.32 1102.88L2002.63 939.801L2132.58 1041.37L2107.85 878.315L2237.76 979.907L2213.07 816.829L2343.03 918.395L2318.34 755.318L2448.29 856.884" stroke="#A0A3BD" stroke-opacity="0.05" stroke-width="3" stroke-miterlimit="10"/>
<path d="M-557.076 423.281L-427.165 524.873L-451.897 361.821L-321.987 463.413L-346.719 300.361L-216.809 401.953L-241.541 238.901L-111.631 340.493L-136.319 177.416L-6.40926 279.008L-31.1413 115.956L98.7688 217.548L74.0367 54.4961L203.991 156.062L179.259 -6.98954L309.169 94.6023L284.437 -68.4494L414.391 33.1168L389.659 -129.935L519.569 -28.3431L494.881 -191.421L624.791 -89.8287L600.059 -252.88L729.969 -151.289L705.237 -314.34L835.147 -212.748L810.415 -375.8L940.369 -274.234L915.637 -437.286L1045.55 -335.694L1020.86 -498.771L1150.77 -397.179L1126.08 -560.257L1256.04 -458.691L1231.3 -621.743L1361.21 -520.151L1336.53 -683.228L1466.48 -581.662L1441.79 -744.74L1571.75 -643.174" stroke="#A0A3BD" stroke-opacity="0.05" stroke-width="3" stroke-miterlimit="10"/>
<path d="M-123.597 1165.1L6.31309 1266.7L-18.419 1103.64L111.491 1205.24L86.7591 1042.18L216.669 1143.78L191.937 980.724L321.847 1082.32L297.159 919.238L427.069 1020.83L402.337 857.778L532.247 959.37L507.515 796.319L637.469 897.885L612.737 734.833L742.647 836.425L717.915 673.373L847.87 774.939L823.138 611.887L953.048 713.479L928.36 550.402L1058.27 651.994L1033.54 488.942L1163.45 590.534L1138.72 427.482L1268.63 529.074L1243.89 366.022L1373.85 467.588L1349.12 304.537L1479.03 406.129L1454.34 243.051L1584.25 344.643L1559.56 181.566L1689.51 283.132L1664.78 120.08L1794.69 221.672L1770 58.5942L1899.96 160.16L1875.27 -2.91712L2005.22 98.6489" stroke="#A0A3BD" stroke-opacity="0.05" stroke-width="3" stroke-miterlimit="10"/>
<path d="M206.306 1729.68L336.216 1831.27L311.484 1668.22L441.394 1769.81L416.662 1606.76L546.572 1708.35L521.84 1545.3L651.75 1646.89L627.062 1483.81L756.973 1585.4L732.241 1422.35L862.151 1523.94L837.419 1360.89L967.373 1462.46L942.641 1299.41L1072.55 1401L1047.82 1237.95L1177.77 1339.51L1153.04 1176.46L1282.95 1278.05L1258.26 1114.98L1388.17 1216.57L1363.44 1053.52L1493.35 1155.11L1468.62 992.055L1598.53 1093.65L1573.8 930.596L1703.75 1032.16L1679.02 869.11L1808.93 970.702L1784.24 807.624L1914.15 909.216L1889.46 746.139L2019.42 847.705L1994.69 684.653L2124.6 786.245L2099.91 623.167L2229.86 724.734L2205.17 561.656L2335.13 663.222" stroke="#A0A3BD" stroke-opacity="0.05" stroke-width="3" stroke-miterlimit="10"/>
<path d="M-340.336 794.192L-210.426 895.784L-235.158 732.732L-105.248 834.324L-129.98 671.272L-0.0695105 772.864L-24.8016 609.812L105.108 711.404L80.4205 548.327L210.331 649.919L185.599 486.867L315.509 588.459L290.777 425.407L420.731 526.973L395.999 363.921L525.909 465.513L501.177 302.462L631.131 404.028L606.399 240.976L736.309 342.568L711.621 179.49L841.531 281.082L816.799 118.03L946.709 219.622L921.977 56.5707L1051.89 158.163L1027.16 -4.88917L1157.11 96.677L1132.38 -66.3748L1262.29 35.2171L1237.6 -127.86L1367.51 -26.2685L1342.82 -189.346L1472.78 -87.78L1448.04 -250.832L1577.95 -149.24L1553.27 -312.317L1683.22 -210.751L1658.53 -373.829L1788.49 -272.263" stroke="#A0A3BD" stroke-opacity="0.05" stroke-width="3" stroke-miterlimit="10"/>
<path d="M93.1417 1536.01L223.052 1637.61L198.32 1474.55L328.23 1576.15L303.498 1413.1L433.408 1514.69L408.676 1351.64L538.586 1453.23L513.898 1290.15L643.808 1391.74L619.076 1228.69L748.986 1330.28L724.254 1167.23L854.208 1268.8L829.476 1105.74L959.386 1207.34L934.654 1044.28L1064.61 1145.85L1039.88 982.799L1169.79 1084.39L1145.1 921.313L1275.01 1022.91L1250.28 859.853L1380.19 961.445L1355.45 798.394L1485.36 899.986L1460.63 736.934L1590.59 838.5L1565.85 675.448L1695.76 777.04L1671.08 613.963L1800.99 715.554L1776.3 552.477L1906.25 654.043L1881.52 490.991L2011.43 592.583L1986.74 429.506L2116.7 531.072L2092.01 367.994L2221.96 469.56" stroke="#A0A3BD" stroke-opacity="0.05" stroke-width="3" stroke-miterlimit="10"/>
<path d="M423.045 2100.59L552.955 2202.18L528.223 2039.13L658.133 2140.72L633.401 1977.67L763.311 2079.26L738.579 1916.21L868.489 2017.8L843.801 1854.72L973.711 1956.31L948.979 1793.26L1078.89 1894.85L1054.16 1731.8L1184.11 1833.37L1159.38 1670.32L1289.29 1771.91L1264.56 1608.86L1394.51 1710.42L1369.78 1547.37L1499.69 1648.96L1475 1485.89L1604.91 1587.48L1580.18 1424.43L1710.09 1526.02L1685.36 1362.97L1815.27 1464.56L1790.54 1301.51L1920.49 1403.07L1895.76 1240.02L2025.67 1341.61L2000.98 1178.54L2130.89 1280.13L2106.2 1117.05L2236.16 1218.62L2211.42 1055.56L2341.33 1157.16L2316.65 994.079L2446.6 1095.65L2421.91 932.568L2551.87 1034.13" stroke="#A0A3BD" stroke-opacity="0.05" stroke-width="3" stroke-miterlimit="10"/>
</g>
<defs>
<clipPath id="clip0_1_29">
<rect width="1920" height="1080" fill="white"/>
</clipPath>
</defs>
</svg>
