<svg width="48" height="34" viewBox="0 0 48 34" fill="none" xmlns="http://www.w3.org/2000/svg">
<path d="M47.3333 31.0116C47.3333 32.295 46.2927 33.3333 45.0117 33.3333H26.3217C25.7059 33.3333 25.1154 33.0887 24.68 32.6533C24.2446 32.2179 24 31.6274 24 31.0116C24 30.3959 24.2446 29.8054 24.68 29.37C25.1154 28.9346 25.7059 28.69 26.3217 28.69H45.0117C46.295 28.69 47.3333 29.7283 47.3333 31.0116ZM47.3333 17C47.3333 18.2833 46.2927 19.3216 45.0117 19.3216H2.98832C2.37258 19.3216 1.78205 19.077 1.34666 18.6416C0.91126 18.2062 0.666656 17.6157 0.666656 17C0.666656 16.3842 0.91126 15.7937 1.34666 15.3583C1.78205 14.9229 2.37258 14.6783 2.98832 14.6783H45.0117C46.295 14.6783 47.3333 15.719 47.3333 17ZM45.0117 5.30996C45.6274 5.30996 46.2179 5.06536 46.6533 4.62996C47.0887 4.19456 47.3333 3.60404 47.3333 2.98829C47.3333 2.37255 47.0887 1.78202 46.6533 1.34663C46.2179 0.911229 45.6274 0.666626 45.0117 0.666626H16.9883C16.6834 0.666626 16.3815 0.726678 16.0999 0.843352C15.8182 0.960027 15.5622 1.13104 15.3467 1.34663C15.1311 1.56221 14.9601 1.81815 14.8434 2.09983C14.7267 2.38151 14.6667 2.68341 14.6667 2.98829C14.6667 3.29318 14.7267 3.59508 14.8434 3.87676C14.9601 4.15843 15.1311 4.41437 15.3467 4.62996C15.5622 4.84555 15.8182 5.01656 16.0999 5.13323C16.3815 5.24991 16.6834 5.30996 16.9883 5.30996H45.0117Z" fill="#0EC79B"/>
</svg>
